<svg width="25" height="24" viewBox="0 0 25 24" fill="none" xmlns="http://www.w3.org/2000/svg">
<path fill-rule="evenodd" clip-rule="evenodd" d="M4.5 2.75C3.80964 2.75 3.25 3.30964 3.25 4C3.25 4.69036 3.80964 5.25 4.5 5.25C5.19036 5.25 5.75 4.69036 5.75 4C5.75 3.30964 5.19036 2.75 4.5 2.75ZM1.75 4C1.75 2.48122 2.98122 1.25 4.5 1.25C6.01878 1.25 7.25 2.48122 7.25 4C7.25 5.51878 6.01878 6.75 4.5 6.75C2.98122 6.75 1.75 5.51878 1.75 4ZM16.5 8.75C15.1076 8.75 13.7722 9.30312 12.7877 10.2877C11.8031 11.2723 11.25 12.6076 11.25 14V20.25H13.75V14C13.75 13.2707 14.0397 12.5712 14.5554 12.0555C15.0711 11.5397 15.7706 11.25 16.5 11.25C17.2293 11.25 17.9288 11.5397 18.4445 12.0555C18.9602 12.5712 19.25 13.2707 19.25 14V20.25H21.75V14C21.75 12.6076 21.1968 11.2723 20.2123 10.2877C19.2277 9.30312 17.8924 8.75 16.5 8.75ZM11.727 9.22703C12.9929 7.96116 14.7098 7.25 16.5 7.25C18.2902 7.25 20.0071 7.96116 21.2729 9.22703C22.5388 10.4929 23.25 12.2098 23.25 14V21C23.25 21.4142 22.9142 21.75 22.5 21.75H18.5C18.0858 21.75 17.75 21.4142 17.75 21V14C17.75 13.6685 17.6183 13.3505 17.3839 13.1161C17.1494 12.8817 16.8315 12.75 16.5 12.75C16.1684 12.75 15.8505 12.8817 15.6161 13.1161C15.3817 13.3505 15.25 13.6685 15.25 14V21C15.25 21.4142 14.9142 21.75 14.5 21.75H10.5C10.0858 21.75 9.74997 21.4142 9.74997 21V14C9.74997 12.2098 10.4611 10.4929 11.727 9.22703ZM1.75 8.99998C1.75 8.58577 2.08579 8.24998 2.5 8.24998H6.5C6.91421 8.24998 7.25 8.58577 7.25 8.99998V21C7.25 21.4142 6.91421 21.75 6.5 21.75H2.5C2.08579 21.75 1.75 21.4142 1.75 21V8.99998ZM3.25 9.74998V20.25H5.75V9.74998H3.25Z" fill="white"/>
</svg>
