<svg width="25" height="24" viewBox="0 0 25 24" fill="none" xmlns="http://www.w3.org/2000/svg">
<path fill-rule="evenodd" clip-rule="evenodd" d="M3.30176 5.64574L12.5 12.0845L21.6982 5.64574C21.544 5.1302 21.063 4.75 20.5 4.75H4.5C3.93705 4.75 3.45602 5.1302 3.30176 5.64574ZM21.75 7.44049L12.9301 13.6144C12.6719 13.7952 12.3281 13.7952 12.0699 13.6144L3.25 7.44049V18C3.25 18.6858 3.81421 19.25 4.5 19.25H20.5C21.1858 19.25 21.75 18.6858 21.75 18V7.44049ZM1.75 6C1.75 4.48579 2.98579 3.25 4.5 3.25H20.5C22.0142 3.25 23.25 4.48579 23.25 6V18C23.25 19.5142 22.0142 20.75 20.5 20.75H4.5C2.98579 20.75 1.75 19.5142 1.75 18V6Z" fill="white"/>
</svg>
