<svg width="25" height="24" viewBox="0 0 25 24" fill="blue" xmlns="http://www.w3.org/2000/svg">
<g clip-path="url(#clip0_497_3716)">
<path fill-rule="evenodd" clip-rule="evenodd" d="M12.5 3.25C12.5 3.25 12.5001 3.25 12.5001 4L12.5001 4.75L12.4241 4.75011C12.3738 4.75022 12.2997 4.75044 12.2046 4.75089C12.0144 4.75178 11.7405 4.75357 11.4062 4.75714C10.7374 4.7643 9.82869 4.7786 8.86736 4.80717C7.90483 4.83577 6.8956 4.8785 6.02402 4.94208C5.13585 5.00686 4.45286 5.08951 4.09907 5.18315C3.75737 5.2808 3.44726 5.46646 3.19977 5.7216C2.95644 5.97246 2.78209 6.28178 2.69342 6.61956C2.38998 8.31141 2.24158 10.0274 2.25007 11.7463L2.25012 11.7547C2.23927 13.4823 2.38687 15.2071 2.69113 16.9077C2.789 17.2304 2.96582 17.5239 3.2058 17.7614C3.45344 18.0065 3.75999 18.1837 4.09593 18.276C4.4488 18.37 5.13321 18.4529 6.02402 18.5179C6.8956 18.5815 7.90483 18.6242 8.86736 18.6528C9.82869 18.6814 10.7374 18.6957 11.4062 18.7029C11.7405 18.7064 12.0144 18.7082 12.2046 18.7091C12.2997 18.7096 12.3738 18.7098 12.4241 18.7099L12.5001 18.71L12.5001 19.46C12.5001 20.21 12.5 20.21 12.5 20.21L12.4207 20.2099C12.3693 20.2098 12.294 20.2095 12.1976 20.2091C12.0048 20.2082 11.7278 20.2064 11.3902 20.2028C10.7152 20.1955 9.79648 20.1811 8.82281 20.1522C7.85034 20.1233 6.81707 20.0798 5.9149 20.0139C5.0337 19.9497 4.21405 19.8603 3.70631 19.7245L3.70215 19.7234C3.11655 19.5632 2.58217 19.2546 2.15065 18.8275C1.71913 18.4005 1.40505 17.8693 1.23876 17.2854C1.23199 17.2616 1.22639 17.2375 1.22199 17.2131C0.896807 15.4103 0.738829 13.5814 0.750072 11.7495C0.741345 9.93134 0.899311 8.11621 1.22199 6.3269C1.22495 6.31045 1.22847 6.29411 1.23253 6.27789C1.38336 5.67527 1.69056 5.12312 2.12309 4.67721C2.55561 4.23131 3.09815 3.90744 3.69591 3.73833L3.70629 3.73539C4.21403 3.5996 5.0337 3.51032 5.9149 3.44605C6.81707 3.38025 7.85034 3.33673 8.82281 3.30783C9.79648 3.2789 10.7152 3.26445 11.3902 3.25723C11.7278 3.25362 12.0048 3.25181 12.1976 3.25091C12.294 3.25045 12.3693 3.25023 12.4207 3.25011L12.5 3.25ZM20.9011 18.2769C20.5473 18.3705 19.8643 18.4531 18.9762 18.5179C18.1046 18.5815 17.0953 18.6242 16.1328 18.6528C15.1715 18.6814 14.2627 18.6957 13.5939 18.7029C13.2597 18.7064 12.9857 18.7082 12.7955 18.7091C12.7005 18.7096 12.6263 18.7098 12.5761 18.7099L12.5001 18.71L12.5001 19.46C12.5001 20.21 12.5 20.21 12.5 20.21L12.5794 20.2099C12.6308 20.2098 12.7062 20.2095 12.8026 20.2091C12.9954 20.2082 13.2724 20.2064 13.61 20.2028C14.2849 20.1955 15.2037 20.1811 16.1774 20.1522C17.1498 20.1233 18.1831 20.0798 19.0853 20.0139C19.9665 19.9497 20.7861 19.8603 21.2939 19.7245L21.3043 19.7217C21.902 19.5526 22.4446 19.2287 22.8771 18.7828C23.3096 18.3369 23.6168 17.7847 23.7676 17.1821C23.7717 17.1659 23.7752 17.1495 23.7782 17.1331C24.0984 15.3571 24.2564 13.5557 24.2501 11.751C24.2614 9.91901 24.1034 8.08985 23.7782 6.28686C23.7752 6.27043 23.7717 6.2541 23.7676 6.23789C23.6168 5.63527 23.3096 5.08312 22.8771 4.63721C22.4446 4.19131 21.902 3.86744 21.3043 3.69833C21.2955 3.69586 21.2868 3.69356 21.278 3.69141C20.7762 3.56888 19.962 3.48755 19.0805 3.42885C18.1797 3.36885 17.1475 3.32915 16.1754 3.30278C15.2023 3.27637 14.284 3.26319 13.6093 3.2566C13.2718 3.2533 12.995 3.25165 12.8023 3.25083C12.7059 3.25041 12.6306 3.25021 12.5793 3.2501L12.5 3.25C12.5 3.25 12.5001 3.25 12.5001 4L12.5001 4.75L12.5763 4.7501L12.7959 4.75081C12.9862 4.75163 13.2602 4.75326 13.5946 4.75653C14.2637 4.76306 15.1729 4.77613 16.1347 4.80222C17.0977 4.82835 18.108 4.8674 18.9809 4.92553C19.8622 4.98423 20.547 5.05926 20.9089 5.14538C21.2475 5.24362 21.5548 5.4284 21.8004 5.6816C22.0437 5.93246 22.2181 6.2418 22.3068 6.57958C22.6126 8.28423 22.761 10.0134 22.7501 11.7453L22.7501 11.7527C22.7562 13.4585 22.6078 15.1614 22.3067 16.8404C22.2181 17.1782 22.0437 17.4875 21.8004 17.7384C21.5529 17.9935 21.2428 18.1792 20.9011 18.2769ZM9.873 7.83172C10.1039 7.69743 10.3887 7.69604 10.6209 7.82807L16.3709 11.0981C16.6053 11.2314 16.7501 11.4803 16.7501 11.75C16.7501 12.0197 16.6053 12.2686 16.3709 12.402L10.6209 15.672C10.3887 15.804 10.1039 15.8026 9.873 15.6683C9.64214 15.534 9.50012 15.2871 9.50012 15.02V8.48002C9.50012 8.21294 9.64214 7.96601 9.873 7.83172ZM11.0001 9.76934V13.7307L14.483 11.75L11.0001 9.76934Z" fill="blue"/>
</g>
<defs>
<clipPath id="clip0_497_3716">
<rect width="24" height="24" fill="blue" transform="translate(0.5)"/>
</clipPath>
</defs>
</svg>
