<svg xmlns="http://www.w3.org/2000/svg" version="1.1" xmlns:xlink="http://www.w3.org/1999/xlink" xmlns:svgjs="http://svgjs.dev/svgjs" width="1440" height="560" preserveAspectRatio="none" viewBox="0 0 1440 560"><g mask="url(&quot;#SvgjsMask1007&quot;)" fill="none"><path d="M750.285,69.011C769.675,70.107,789.199,60.426,798.113,43.172C806.483,26.97,799.18,8.379,789.639,-7.162C780.657,-21.793,767.418,-33.645,750.285,-34.737C731.103,-35.96,710.271,-29.728,701.159,-12.804C692.354,3.55,701.427,22.322,710.989,38.246C720.168,53.532,732.483,68.004,750.285,69.011" fill="rgba(28, 83, 142, 0.4)" class="triangle-float2"></path><path d="M264.7854904376668 460.0275311610341L284.38812301798424 320.54755282002134 144.9081446769714 300.9449202397039 125.30551209665398 440.4248985807167z" fill="rgba(28, 83, 142, 0.4)" class="triangle-float2"></path><path d="M47.348,36.36C64.769,36.743,78.643,23.27,87.022,7.992C95.043,-6.633,95.906,-23.727,88.499,-38.672C80.092,-55.635,66.271,-72.646,47.348,-72.06C28.971,-71.491,18.193,-52.901,10.385,-36.255C3.927,-22.487,3.689,-7.242,10.588,6.31C18.283,21.427,30.389,35.987,47.348,36.36" fill="rgba(28, 83, 142, 0.4)" class="triangle-float1"></path><path d="M99.404,222.988C131.494,221.424,153.908,193.684,167.963,164.793C180.124,139.796,178.833,111.441,165.549,87.022C151.571,61.327,128.637,39.788,99.404,38.769C68.585,37.695,40.799,55.776,24.758,82.114C7.992,109.642,3.111,143.612,18.202,172.093C34.233,202.346,65.207,224.655,99.404,222.988" fill="rgba(28, 83, 142, 0.4)" class="triangle-float2"></path><path d="M1015.716,717.203C1073.782,718.572,1139.879,722.642,1172.628,674.673C1208.352,622.348,1202.402,549.135,1165.734,497.467C1133.414,451.926,1071.56,453.508,1015.716,453.571C960.038,453.634,897.454,451.67,866.281,497.803C832.311,548.076,836.965,617.415,871.121,667.562C901.868,712.705,961.112,715.915,1015.716,717.203" fill="rgba(28, 83, 142, 0.4)" class="triangle-float2"></path><path d="M148.67249609398752 206.8270950844888L38.955702596206834 173.28330504095322 5.411912552671225 283.0000985387339 115.12870605045192 316.54388858226946z" fill="rgba(28, 83, 142, 0.4)" class="triangle-float3"></path></g><defs><mask id="SvgjsMask1007"><rect width="1440" height="560" fill="#ffffff"></rect></mask><style>
                @keyframes float1 {
                    0%{transform: translate(0, 0)}
                    50%{transform: translate(-10px, 0)}
                    100%{transform: translate(0, 0)}
                }

                .triangle-float1 {
                    animation: float1 5s infinite;
                }

                @keyframes float2 {
                    0%{transform: translate(0, 0)}
                    50%{transform: translate(-5px, -5px)}
                    100%{transform: translate(0, 0)}
                }

                .triangle-float2 {
                    animation: float2 4s infinite;
                }

                @keyframes float3 {
                    0%{transform: translate(0, 0)}
                    50%{transform: translate(0, -10px)}
                    100%{transform: translate(0, 0)}
                }

                .triangle-float3 {
                    animation: float3 6s infinite;
                }
            </style></defs></svg>