<?xml version="1.0" standalone="no"?>
<svg viewBox="0 0 200 200" xmlns="http://www.w3.org/2000/svg">
  <path fill="#D0E2FF" d="M48,-74.5C61.6,-66,71.6,-51.6,78.7,-35.9C85.9,-20.3,90.3,-3.3,89,13.5C87.7,30.3,80.6,47.1,69.3,59.9C58,72.8,42.3,81.8,25.4,87.1C8.5,92.3,-9.8,93.8,-25.3,88.2C-40.7,82.7,-53.5,70,-63.8,56.3C-74.1,42.6,-81.9,27.7,-85.8,11.4C-89.6,-5,-89.4,-22.9,-82.4,-37.4C-75.4,-51.9,-61.6,-63.1,-46.7,-71.1C-31.8,-79,-15.9,-83.7,0.6,-84.7C17.2,-85.7,34.4,-83,48,-74.5Z" transform="translate(100 100)" />
</svg>
