<svg xmlns="http://www.w3.org/2000/svg" version="1.1" xmlns:xlink="http://www.w3.org/1999/xlink" xmlns:svgjs="http://svgjs.dev/svgjs" width="1440" height="250" preserveAspectRatio="none" viewBox="0 0 1440 250"><g mask="url(&quot;#SvgjsMask1000&quot;)" fill="none"><rect width="1440" height="250" x="0" y="0" fill="#0e2a47"></rect><path d="M26 250L276 0L529.5 0L279.5 250z" fill="url(&quot;#SvgjsLinearGradient1001&quot;)"></path><path d="M241.60000000000002 250L491.6 0L554.6 0L304.6 250z" fill="url(&quot;#SvgjsLinearGradient1001&quot;)"></path><path d="M477.20000000000005 250L727.2 0L788.7 0L538.7 250z" fill="url(&quot;#SvgjsLinearGradient1001&quot;)"></path><path d="M720.8000000000001 250L970.8000000000001 0L1188.3000000000002 0L938.3000000000001 250z" fill="url(&quot;#SvgjsLinearGradient1001&quot;)"></path><path d="M1422 250L1172 0L831.5 0L1081.5 250z" fill="url(&quot;#SvgjsLinearGradient1002&quot;)"></path><path d="M1179.4 250L929.4000000000001 0L606.9000000000001 0L856.9000000000001 250z" fill="url(&quot;#SvgjsLinearGradient1002&quot;)"></path><path d="M958.8 250L708.8 0L597.8 0L847.8 250z" fill="url(&quot;#SvgjsLinearGradient1002&quot;)"></path><path d="M695.1999999999999 250L445.19999999999993 0L305.69999999999993 0L555.6999999999999 250z" fill="url(&quot;#SvgjsLinearGradient1002&quot;)"></path><path d="M1218.9956890696353 250L1440 28.995689069635432L1440 250z" fill="url(&quot;#SvgjsLinearGradient1001&quot;)"></path><path d="M0 250L221.00431093036457 250L 0 28.995689069635432z" fill="url(&quot;#SvgjsLinearGradient1002&quot;)"></path></g><defs><mask id="SvgjsMask1000"><rect width="1440" height="250" fill="#ffffff"></rect></mask><linearGradient x1="0%" y1="100%" x2="100%" y2="0%" id="SvgjsLinearGradient1001"><stop stop-color="rgba(15, 70, 185, 0.2)" offset="0"></stop><stop stop-opacity="0" stop-color="rgba(15, 70, 185, 0.2)" offset="0.66"></stop></linearGradient><linearGradient x1="100%" y1="100%" x2="0%" y2="0%" id="SvgjsLinearGradient1002"><stop stop-color="rgba(15, 70, 185, 0.2)" offset="0"></stop><stop stop-opacity="0" stop-color="rgba(15, 70, 185, 0.2)" offset="0.66"></stop></linearGradient></defs></svg>