<svg xmlns="http://www.w3.org/2000/svg" version="1.1" xmlns:xlink="http://www.w3.org/1999/xlink" xmlns:svgjs="http://svgjs.dev/svgjs" width="1440" height="560" preserveAspectRatio="none" viewBox="0 0 1440 560"><g mask="url(&quot;#SvgjsMask1004&quot;)" fill="none"><rect width="1440" height="560" x="0" y="0" fill="rgba(27, 28, 52, 1)"></rect><path d="M54.89 -19.77L119.84 17.73L119.84 92.73L54.89 130.23L-10.06 92.73L-10.06 17.73zM119.84 317.73L184.8 355.23L184.8 430.23L119.84 467.73L54.89 430.23L54.89 355.23zM314.7 205.23L379.66 242.73L379.66 317.73L314.7 355.23L249.75 317.73L249.75 242.73zM574.52 -19.77L639.47 17.73L639.47 92.73L574.52 130.23L509.57 92.73L509.57 17.73zM574.52 205.23L639.47 242.73L639.47 317.73L574.52 355.23L509.57 317.73L509.57 242.73zM704.43 -19.77L769.38 17.73L769.38 92.73L704.43 130.23L639.47 92.73L639.47 17.73zM899.29 317.73L964.24 355.23L964.24 430.23L899.29 467.73L834.33 430.23L834.33 355.23zM899.29 542.73L964.24 580.23L964.24 655.23L899.29 692.73L834.33 655.23L834.33 580.23zM964.24 205.23L1029.2 242.73L1029.2 317.73L964.24 355.23L899.29 317.73L899.29 242.73zM1029.2 317.73L1094.15 355.23L1094.15 430.23L1029.2 467.73L964.24 430.23L964.24 355.23zM1094.15 -19.77L1159.1 17.73L1159.1 92.73L1094.15 130.23L1029.2 92.73L1029.2 17.73zM1094.15 205.23L1159.1 242.73L1159.1 317.73L1094.15 355.23L1029.2 317.73L1029.2 242.73zM1159.1 317.73L1224.06 355.23L1224.06 430.23L1159.1 467.73L1094.15 430.23L1094.15 355.23zM1224.06 -19.77L1289.01 17.73L1289.01 92.73L1224.06 130.23L1159.1 92.73L1159.1 17.73zM1289.01 92.73L1353.96 130.23L1353.96 205.23L1289.01 242.73L1224.06 205.23L1224.06 130.23zM1224.06 430.23L1289.01 467.73L1289.01 542.73L1224.06 580.23L1159.1 542.73L1159.1 467.73zM1353.97 -19.77L1418.92 17.73L1418.92 92.73L1353.97 130.23L1289.01 92.73L1289.01 17.73zM1548.83 542.73L1613.78 580.23L1613.78 655.23L1548.83 692.73L1483.87 655.23L1483.87 580.23z" stroke="rgba(17, 92, 168, 1)" stroke-width="2"></path><path d="M47.39 -19.77 a7.5 7.5 0 1 0 15 0 a7.5 7.5 0 1 0 -15 0zM112.34 17.73 a7.5 7.5 0 1 0 15 0 a7.5 7.5 0 1 0 -15 0zM112.34 92.73 a7.5 7.5 0 1 0 15 0 a7.5 7.5 0 1 0 -15 0zM47.39 130.23 a7.5 7.5 0 1 0 15 0 a7.5 7.5 0 1 0 -15 0zM-17.56 92.73 a7.5 7.5 0 1 0 15 0 a7.5 7.5 0 1 0 -15 0zM-17.56 17.73 a7.5 7.5 0 1 0 15 0 a7.5 7.5 0 1 0 -15 0zM112.34 317.73 a7.5 7.5 0 1 0 15 0 a7.5 7.5 0 1 0 -15 0zM177.3 355.23 a7.5 7.5 0 1 0 15 0 a7.5 7.5 0 1 0 -15 0zM177.3 430.23 a7.5 7.5 0 1 0 15 0 a7.5 7.5 0 1 0 -15 0zM112.34 467.73 a7.5 7.5 0 1 0 15 0 a7.5 7.5 0 1 0 -15 0zM47.39 430.23 a7.5 7.5 0 1 0 15 0 a7.5 7.5 0 1 0 -15 0zM47.39 355.23 a7.5 7.5 0 1 0 15 0 a7.5 7.5 0 1 0 -15 0zM307.2 205.23 a7.5 7.5 0 1 0 15 0 a7.5 7.5 0 1 0 -15 0zM372.16 242.73 a7.5 7.5 0 1 0 15 0 a7.5 7.5 0 1 0 -15 0zM372.16 317.73 a7.5 7.5 0 1 0 15 0 a7.5 7.5 0 1 0 -15 0zM307.2 355.23 a7.5 7.5 0 1 0 15 0 a7.5 7.5 0 1 0 -15 0zM242.25 317.73 a7.5 7.5 0 1 0 15 0 a7.5 7.5 0 1 0 -15 0zM242.25 242.73 a7.5 7.5 0 1 0 15 0 a7.5 7.5 0 1 0 -15 0zM567.02 -19.77 a7.5 7.5 0 1 0 15 0 a7.5 7.5 0 1 0 -15 0zM631.97 17.73 a7.5 7.5 0 1 0 15 0 a7.5 7.5 0 1 0 -15 0zM631.97 92.73 a7.5 7.5 0 1 0 15 0 a7.5 7.5 0 1 0 -15 0zM567.02 130.23 a7.5 7.5 0 1 0 15 0 a7.5 7.5 0 1 0 -15 0zM502.07 92.73 a7.5 7.5 0 1 0 15 0 a7.5 7.5 0 1 0 -15 0zM502.07 17.73 a7.5 7.5 0 1 0 15 0 a7.5 7.5 0 1 0 -15 0zM567.02 205.23 a7.5 7.5 0 1 0 15 0 a7.5 7.5 0 1 0 -15 0zM631.97 242.73 a7.5 7.5 0 1 0 15 0 a7.5 7.5 0 1 0 -15 0zM631.97 317.73 a7.5 7.5 0 1 0 15 0 a7.5 7.5 0 1 0 -15 0zM567.02 355.23 a7.5 7.5 0 1 0 15 0 a7.5 7.5 0 1 0 -15 0zM502.07 317.73 a7.5 7.5 0 1 0 15 0 a7.5 7.5 0 1 0 -15 0zM502.07 242.73 a7.5 7.5 0 1 0 15 0 a7.5 7.5 0 1 0 -15 0zM696.93 -19.77 a7.5 7.5 0 1 0 15 0 a7.5 7.5 0 1 0 -15 0zM761.88 17.73 a7.5 7.5 0 1 0 15 0 a7.5 7.5 0 1 0 -15 0zM761.88 92.73 a7.5 7.5 0 1 0 15 0 a7.5 7.5 0 1 0 -15 0zM696.93 130.23 a7.5 7.5 0 1 0 15 0 a7.5 7.5 0 1 0 -15 0zM891.79 317.73 a7.5 7.5 0 1 0 15 0 a7.5 7.5 0 1 0 -15 0zM956.74 355.23 a7.5 7.5 0 1 0 15 0 a7.5 7.5 0 1 0 -15 0zM956.74 430.23 a7.5 7.5 0 1 0 15 0 a7.5 7.5 0 1 0 -15 0zM891.79 467.73 a7.5 7.5 0 1 0 15 0 a7.5 7.5 0 1 0 -15 0zM826.83 430.23 a7.5 7.5 0 1 0 15 0 a7.5 7.5 0 1 0 -15 0zM826.83 355.23 a7.5 7.5 0 1 0 15 0 a7.5 7.5 0 1 0 -15 0zM891.79 542.73 a7.5 7.5 0 1 0 15 0 a7.5 7.5 0 1 0 -15 0zM956.74 580.23 a7.5 7.5 0 1 0 15 0 a7.5 7.5 0 1 0 -15 0zM956.74 655.23 a7.5 7.5 0 1 0 15 0 a7.5 7.5 0 1 0 -15 0zM891.79 692.73 a7.5 7.5 0 1 0 15 0 a7.5 7.5 0 1 0 -15 0zM826.83 655.23 a7.5 7.5 0 1 0 15 0 a7.5 7.5 0 1 0 -15 0zM826.83 580.23 a7.5 7.5 0 1 0 15 0 a7.5 7.5 0 1 0 -15 0zM956.74 205.23 a7.5 7.5 0 1 0 15 0 a7.5 7.5 0 1 0 -15 0zM1021.7 242.73 a7.5 7.5 0 1 0 15 0 a7.5 7.5 0 1 0 -15 0zM1021.7 317.73 a7.5 7.5 0 1 0 15 0 a7.5 7.5 0 1 0 -15 0zM891.79 242.73 a7.5 7.5 0 1 0 15 0 a7.5 7.5 0 1 0 -15 0zM1086.65 355.23 a7.5 7.5 0 1 0 15 0 a7.5 7.5 0 1 0 -15 0zM1086.65 430.23 a7.5 7.5 0 1 0 15 0 a7.5 7.5 0 1 0 -15 0zM1021.7 467.73 a7.5 7.5 0 1 0 15 0 a7.5 7.5 0 1 0 -15 0zM1086.65 -19.77 a7.5 7.5 0 1 0 15 0 a7.5 7.5 0 1 0 -15 0zM1151.6 17.73 a7.5 7.5 0 1 0 15 0 a7.5 7.5 0 1 0 -15 0zM1151.6 92.73 a7.5 7.5 0 1 0 15 0 a7.5 7.5 0 1 0 -15 0zM1086.65 130.23 a7.5 7.5 0 1 0 15 0 a7.5 7.5 0 1 0 -15 0zM1021.7 92.73 a7.5 7.5 0 1 0 15 0 a7.5 7.5 0 1 0 -15 0zM1021.7 17.73 a7.5 7.5 0 1 0 15 0 a7.5 7.5 0 1 0 -15 0zM1086.65 205.23 a7.5 7.5 0 1 0 15 0 a7.5 7.5 0 1 0 -15 0zM1151.6 242.73 a7.5 7.5 0 1 0 15 0 a7.5 7.5 0 1 0 -15 0zM1151.6 317.73 a7.5 7.5 0 1 0 15 0 a7.5 7.5 0 1 0 -15 0zM1216.56 355.23 a7.5 7.5 0 1 0 15 0 a7.5 7.5 0 1 0 -15 0zM1216.56 430.23 a7.5 7.5 0 1 0 15 0 a7.5 7.5 0 1 0 -15 0zM1151.6 467.73 a7.5 7.5 0 1 0 15 0 a7.5 7.5 0 1 0 -15 0zM1216.56 -19.77 a7.5 7.5 0 1 0 15 0 a7.5 7.5 0 1 0 -15 0zM1281.51 17.73 a7.5 7.5 0 1 0 15 0 a7.5 7.5 0 1 0 -15 0zM1281.51 92.73 a7.5 7.5 0 1 0 15 0 a7.5 7.5 0 1 0 -15 0zM1216.56 130.23 a7.5 7.5 0 1 0 15 0 a7.5 7.5 0 1 0 -15 0zM1346.46 130.23 a7.5 7.5 0 1 0 15 0 a7.5 7.5 0 1 0 -15 0zM1346.46 205.23 a7.5 7.5 0 1 0 15 0 a7.5 7.5 0 1 0 -15 0zM1281.51 242.73 a7.5 7.5 0 1 0 15 0 a7.5 7.5 0 1 0 -15 0zM1216.56 205.23 a7.5 7.5 0 1 0 15 0 a7.5 7.5 0 1 0 -15 0zM1281.51 467.73 a7.5 7.5 0 1 0 15 0 a7.5 7.5 0 1 0 -15 0zM1281.51 542.73 a7.5 7.5 0 1 0 15 0 a7.5 7.5 0 1 0 -15 0zM1216.56 580.23 a7.5 7.5 0 1 0 15 0 a7.5 7.5 0 1 0 -15 0zM1151.6 542.73 a7.5 7.5 0 1 0 15 0 a7.5 7.5 0 1 0 -15 0zM1346.47 -19.77 a7.5 7.5 0 1 0 15 0 a7.5 7.5 0 1 0 -15 0zM1411.42 17.73 a7.5 7.5 0 1 0 15 0 a7.5 7.5 0 1 0 -15 0zM1411.42 92.73 a7.5 7.5 0 1 0 15 0 a7.5 7.5 0 1 0 -15 0zM1346.47 130.23 a7.5 7.5 0 1 0 15 0 a7.5 7.5 0 1 0 -15 0zM1541.33 542.73 a7.5 7.5 0 1 0 15 0 a7.5 7.5 0 1 0 -15 0zM1606.28 580.23 a7.5 7.5 0 1 0 15 0 a7.5 7.5 0 1 0 -15 0zM1606.28 655.23 a7.5 7.5 0 1 0 15 0 a7.5 7.5 0 1 0 -15 0zM1541.33 692.73 a7.5 7.5 0 1 0 15 0 a7.5 7.5 0 1 0 -15 0zM1476.37 655.23 a7.5 7.5 0 1 0 15 0 a7.5 7.5 0 1 0 -15 0zM1476.37 580.23 a7.5 7.5 0 1 0 15 0 a7.5 7.5 0 1 0 -15 0z" fill="rgba(17, 92, 168, 1)"></path><path d="M2.05 116.36L45.35 141.36L45.35 191.36L2.05 216.36L-41.25 191.36L-41.25 141.36zM88.66 266.36L131.96 291.36L131.96 341.36L88.66 366.36L45.35 341.36L45.35 291.36zM348.47 -33.64L391.77 -8.64L391.77 41.36L348.47 66.36L305.17 41.36L305.17 -8.64zM391.77 41.36L435.08 66.36L435.08 116.36L391.77 141.36L348.47 116.36L348.47 66.36zM478.38 191.36L521.68 216.36L521.68 266.36L478.38 291.36L435.08 266.36L435.08 216.36zM435.08 416.36L478.38 441.36L478.38 491.36L435.08 516.36L391.77 491.36L391.77 441.36zM564.98 191.36L608.28 216.36L608.28 266.36L564.98 291.36L521.68 266.36L521.68 216.36zM564.98 341.36L608.28 366.36L608.28 416.36L564.98 441.36L521.68 416.36L521.68 366.36zM521.68 416.36L564.98 441.36L564.98 491.36L521.68 516.36L478.38 491.36L478.38 441.36zM608.28 116.36L651.59 141.36L651.59 191.36L608.28 216.36L564.98 191.36L564.98 141.36zM608.28 266.36L651.59 291.36L651.59 341.36L608.28 366.36L564.98 341.36L564.98 291.36zM738.19 491.36L781.5 516.36L781.5 566.36L738.19 591.36L694.89 566.36L694.89 516.36zM824.8 41.36L868.1 66.36L868.1 116.36L824.8 141.36L781.5 116.36L781.5 66.36zM824.8 191.36L868.1 216.36L868.1 266.36L824.8 291.36L781.5 266.36L781.5 216.36zM998.01 41.36L1041.31 66.36L1041.31 116.36L998.01 141.36L954.71 116.36L954.71 66.36zM954.71 266.36L998.01 291.36L998.01 341.36L954.71 366.36L911.4 341.36L911.4 291.36zM1084.61 41.36L1127.91 66.36L1127.91 116.36L1084.61 141.36L1041.31 116.36L1041.31 66.36zM1084.61 491.36L1127.91 516.36L1127.91 566.36L1084.61 591.36L1041.31 566.36L1041.31 516.36zM1171.22 491.36L1214.52 516.36L1214.52 566.36L1171.22 591.36L1127.91 566.36L1127.91 516.36zM1214.52 -33.64L1257.82 -8.64L1257.82 41.36L1214.52 66.36L1171.22 41.36L1171.22 -8.64zM1214.52 416.36L1257.82 441.36L1257.82 491.36L1214.52 516.36L1171.22 491.36L1171.22 441.36zM1301.13 -33.64L1344.43 -8.64L1344.43 41.36L1301.13 66.36L1257.82 41.36L1257.82 -8.64zM1344.43 41.36L1387.73 66.36L1387.73 116.36L1344.43 141.36L1301.13 116.36L1301.13 66.36zM1387.73 266.36L1431.03 291.36L1431.03 341.36L1387.73 366.36L1344.43 341.36L1344.43 291.36z" stroke="rgba(0, 0, 0, 0)" stroke-width="2"></path></g><defs><mask id="SvgjsMask1004"><rect width="1440" height="560" fill="#ffffff"></rect></mask></defs></svg>