<svg xmlns="http://www.w3.org/2000/svg" version="1.1" xmlns:xlink="http://www.w3.org/1999/xlink" xmlns:svgjs="http://svgjs.dev/svgjs" width="1440" height="560" preserveAspectRatio="none" viewBox="0 0 1440 560"><g mask="url(&quot;#SvgjsMask1050&quot;)" fill="none"><rect width="1440" height="560" x="0" y="0" fill="#0e2a47"></rect><path d="M-101.72 391.84L-101.72 391.84" stroke="#132e65" stroke-width="1.5"></path><path d="M-101.72 391.84L-52.35 506.57" stroke="#132e65" stroke-width="1.5"></path><path d="M-101.72 391.84L39.36 397.07" stroke="#132e65" stroke-width="1.5"></path><path d="M-52.35 506.57L-52.35 506.57" stroke="#132e65" stroke-width="1.5"></path><path d="M-52.35 506.57L39.36 397.07" stroke="#132e65" stroke-width="1.5"></path><path d="M-52.35 506.57L-83.45 648.05" stroke="#132e65" stroke-width="1.5"></path><path d="M-52.35 506.57L106.58 496.95" stroke="#132e65" stroke-width="1.5"></path><path d="M-83.45 648.05L-83.45 648.05" stroke="#132e65" stroke-width="1.5"></path><path d="M-83.45 648.05L106.58 496.95" stroke="#132e65" stroke-width="1.5"></path><path d="M-83.45 648.05L-101.72 391.84" stroke="#132e65" stroke-width="1.5"></path><path d="M-83.45 648.05L39.36 397.07" stroke="#132e65" stroke-width="1.5"></path><path d="M39.36 397.07L39.36 397.07" stroke="#132e65" stroke-width="1.5"></path><path d="M39.36 397.07L106.58 496.95" stroke="#132e65" stroke-width="1.5"></path><path d="M106.58 496.95L106.58 496.95" stroke="#132e65" stroke-width="1.5"></path><path d="M106.58 496.95L245.85 505.6" stroke="#132e65" stroke-width="1.5"></path><path d="M106.58 496.95L230.98 407.76" stroke="#132e65" stroke-width="1.5"></path><path d="M106.58 496.95L221.02 658.69" stroke="#132e65" stroke-width="1.5"></path><path d="M230.98 407.76L230.98 407.76" stroke="#132e65" stroke-width="1.5"></path><path d="M230.98 407.76L245.85 505.6" stroke="#132e65" stroke-width="1.5"></path><path d="M230.98 407.76L358.16 337.56" stroke="#132e65" stroke-width="1.5"></path><path d="M230.98 407.76L39.36 397.07" stroke="#132e65" stroke-width="1.5"></path><path d="M230.98 407.76L372.59 554.14" stroke="#132e65" stroke-width="1.5"></path><path d="M230.98 407.76L221.02 658.69" stroke="#132e65" stroke-width="1.5"></path><path d="M245.85 505.6L245.85 505.6" stroke="#132e65" stroke-width="1.5"></path><path d="M245.85 505.6L372.59 554.14" stroke="#132e65" stroke-width="1.5"></path><path d="M221.02 658.69L221.02 658.69" stroke="#132e65" stroke-width="1.5"></path><path d="M221.02 658.69L351.42 666.69" stroke="#132e65" stroke-width="1.5"></path><path d="M221.02 658.69L245.85 505.6" stroke="#132e65" stroke-width="1.5"></path><path d="M358.16 337.56L358.16 337.56" stroke="#132e65" stroke-width="1.5"></path><path d="M358.16 337.56L508.21 346.64" stroke="#132e65" stroke-width="1.5"></path><path d="M358.16 337.56L245.85 505.6" stroke="#132e65" stroke-width="1.5"></path><path d="M372.59 554.14L372.59 554.14" stroke="#132e65" stroke-width="1.5"></path><path d="M372.59 554.14L351.42 666.69" stroke="#132e65" stroke-width="1.5"></path><path d="M372.59 554.14L549.69 507.9" stroke="#132e65" stroke-width="1.5"></path><path d="M372.59 554.14L221.02 658.69" stroke="#132e65" stroke-width="1.5"></path><path d="M351.42 666.69L351.42 666.69" stroke="#132e65" stroke-width="1.5"></path><path d="M508.21 346.64L508.21 346.64" stroke="#132e65" stroke-width="1.5"></path><path d="M508.21 346.64L659.52 355.97" stroke="#132e65" stroke-width="1.5"></path><path d="M508.21 346.64L549.69 507.9" stroke="#132e65" stroke-width="1.5"></path><path d="M549.69 507.9L549.69 507.9" stroke="#132e65" stroke-width="1.5"></path><path d="M549.69 507.9L651.89 558.76" stroke="#132e65" stroke-width="1.5"></path><path d="M549.69 507.9L659.52 355.97" stroke="#132e65" stroke-width="1.5"></path><path d="M549.69 507.9L524.81 700.09" stroke="#132e65" stroke-width="1.5"></path><path d="M524.81 700.09L524.81 700.09" stroke="#132e65" stroke-width="1.5"></path><path d="M524.81 700.09L696.2 711.98" stroke="#132e65" stroke-width="1.5"></path><path d="M524.81 700.09L351.42 666.69" stroke="#132e65" stroke-width="1.5"></path><path d="M524.81 700.09L651.89 558.76" stroke="#132e65" stroke-width="1.5"></path><path d="M524.81 700.09L372.59 554.14" stroke="#132e65" stroke-width="1.5"></path><path d="M524.81 700.09L797.18 682.1" stroke="#132e65" stroke-width="1.5"></path><path d="M687.57 221.55L687.57 221.55" stroke="#132e65" stroke-width="1.5"></path><path d="M687.57 221.55L659.52 355.97" stroke="#132e65" stroke-width="1.5"></path><path d="M687.57 221.55L856.78 208.61" stroke="#132e65" stroke-width="1.5"></path><path d="M659.52 355.97L659.52 355.97" stroke="#132e65" stroke-width="1.5"></path><path d="M659.52 355.97L823.63 389.73" stroke="#132e65" stroke-width="1.5"></path><path d="M659.52 355.97L651.89 558.76" stroke="#132e65" stroke-width="1.5"></path><path d="M659.52 355.97L856.78 208.61" stroke="#132e65" stroke-width="1.5"></path><path d="M651.89 558.76L651.89 558.76" stroke="#132e65" stroke-width="1.5"></path><path d="M651.89 558.76L696.2 711.98" stroke="#132e65" stroke-width="1.5"></path><path d="M651.89 558.76L797.18 682.1" stroke="#132e65" stroke-width="1.5"></path><path d="M696.2 711.98L696.2 711.98" stroke="#132e65" stroke-width="1.5"></path><path d="M696.2 711.98L797.18 682.1" stroke="#132e65" stroke-width="1.5"></path><path d="M696.2 711.98L549.69 507.9" stroke="#132e65" stroke-width="1.5"></path><path d="M696.2 711.98L977.74 683" stroke="#132e65" stroke-width="1.5"></path><path d="M696.2 711.98L961.49 496.5" stroke="#132e65" stroke-width="1.5"></path><path d="M856.78 208.61L856.78 208.61" stroke="#132e65" stroke-width="1.5"></path><path d="M856.78 208.61L965.65 221.77" stroke="#132e65" stroke-width="1.5"></path><path d="M856.78 208.61L823.63 389.73" stroke="#132e65" stroke-width="1.5"></path><path d="M823.63 389.73L823.63 389.73" stroke="#132e65" stroke-width="1.5"></path><path d="M823.63 389.73L961.49 496.5" stroke="#132e65" stroke-width="1.5"></path><path d="M823.63 389.73L1006.5 368.81" stroke="#132e65" stroke-width="1.5"></path><path d="M823.63 389.73L687.57 221.55" stroke="#132e65" stroke-width="1.5"></path><path d="M823.63 389.73L965.65 221.77" stroke="#132e65" stroke-width="1.5"></path><path d="M797.18 682.1L797.18 682.1" stroke="#132e65" stroke-width="1.5"></path><path d="M797.18 682.1L977.74 683" stroke="#132e65" stroke-width="1.5"></path><path d="M797.18 682.1L961.49 496.5" stroke="#132e65" stroke-width="1.5"></path><path d="M797.18 682.1L823.63 389.73" stroke="#132e65" stroke-width="1.5"></path><path d="M977.29 -61.37L977.29 -61.37" stroke="#132e65" stroke-width="1.5"></path><path d="M977.29 -61.37L1002.58 87.15" stroke="#132e65" stroke-width="1.5"></path><path d="M977.29 -61.37L1145.93 -104.23" stroke="#132e65" stroke-width="1.5"></path><path d="M977.29 -61.37L1122.17 101.48" stroke="#132e65" stroke-width="1.5"></path><path d="M977.29 -61.37L1240.39 -95.64" stroke="#132e65" stroke-width="1.5"></path><path d="M977.29 -61.37L965.65 221.77" stroke="#132e65" stroke-width="1.5"></path><path d="M1002.58 87.15L1002.58 87.15" stroke="#132e65" stroke-width="1.5"></path><path d="M1002.58 87.15L1122.17 101.48" stroke="#132e65" stroke-width="1.5"></path><path d="M1002.58 87.15L965.65 221.77" stroke="#132e65" stroke-width="1.5"></path><path d="M1002.58 87.15L856.78 208.61" stroke="#132e65" stroke-width="1.5"></path><path d="M1002.58 87.15L1158 236.61" stroke="#132e65" stroke-width="1.5"></path><path d="M965.65 221.77L965.65 221.77" stroke="#132e65" stroke-width="1.5"></path><path d="M1006.5 368.81L1006.5 368.81" stroke="#132e65" stroke-width="1.5"></path><path d="M1006.5 368.81L961.49 496.5" stroke="#132e65" stroke-width="1.5"></path><path d="M961.49 496.5L961.49 496.5" stroke="#132e65" stroke-width="1.5"></path><path d="M961.49 496.5L977.74 683" stroke="#132e65" stroke-width="1.5"></path><path d="M961.49 496.5L1147.95 521.09" stroke="#132e65" stroke-width="1.5"></path><path d="M961.49 496.5L1145.73 680.08" stroke="#132e65" stroke-width="1.5"></path><path d="M977.74 683L977.74 683" stroke="#132e65" stroke-width="1.5"></path><path d="M977.74 683L1145.73 680.08" stroke="#132e65" stroke-width="1.5"></path><path d="M1145.93 -104.23L1145.93 -104.23" stroke="#132e65" stroke-width="1.5"></path><path d="M1145.93 -104.23L1240.39 -95.64" stroke="#132e65" stroke-width="1.5"></path><path d="M1145.93 -104.23L1122.17 101.48" stroke="#132e65" stroke-width="1.5"></path><path d="M1122.17 101.48L1122.17 101.48" stroke="#132e65" stroke-width="1.5"></path><path d="M1122.17 101.48L1158 236.61" stroke="#132e65" stroke-width="1.5"></path><path d="M1158 236.61L1158 236.61" stroke="#132e65" stroke-width="1.5"></path><path d="M1158 236.61L1249.45 235.13" stroke="#132e65" stroke-width="1.5"></path><path d="M1147.95 521.09L1147.95 521.09" stroke="#132e65" stroke-width="1.5"></path><path d="M1147.95 521.09L1261.59 488.82" stroke="#132e65" stroke-width="1.5"></path><path d="M1147.95 521.09L1145.73 680.08" stroke="#132e65" stroke-width="1.5"></path><path d="M1147.95 521.09L1268.94 412" stroke="#132e65" stroke-width="1.5"></path><path d="M1147.95 521.09L1245.3 700.85" stroke="#132e65" stroke-width="1.5"></path><path d="M1145.73 680.08L1145.73 680.08" stroke="#132e65" stroke-width="1.5"></path><path d="M1145.73 680.08L1245.3 700.85" stroke="#132e65" stroke-width="1.5"></path><path d="M1145.73 680.08L1261.59 488.82" stroke="#132e65" stroke-width="1.5"></path><path d="M1240.39 -95.64L1240.39 -95.64" stroke="#132e65" stroke-width="1.5"></path><path d="M1240.39 -95.64L1302.75 56.6" stroke="#132e65" stroke-width="1.5"></path><path d="M1240.39 -95.64L1432.03 -51.72" stroke="#132e65" stroke-width="1.5"></path><path d="M1240.39 -95.64L1122.17 101.48" stroke="#132e65" stroke-width="1.5"></path><path d="M1302.75 56.6L1302.75 56.6" stroke="#132e65" stroke-width="1.5"></path><path d="M1302.75 56.6L1391.4 99.75" stroke="#132e65" stroke-width="1.5"></path><path d="M1302.75 56.6L1432.03 -51.72" stroke="#132e65" stroke-width="1.5"></path><path d="M1302.75 56.6L1122.17 101.48" stroke="#132e65" stroke-width="1.5"></path><path d="M1302.75 56.6L1249.45 235.13" stroke="#132e65" stroke-width="1.5"></path><path d="M1249.45 235.13L1249.45 235.13" stroke="#132e65" stroke-width="1.5"></path><path d="M1249.45 235.13L1268.94 412" stroke="#132e65" stroke-width="1.5"></path><path d="M1249.45 235.13L1122.17 101.48" stroke="#132e65" stroke-width="1.5"></path><path d="M1268.94 412L1268.94 412" stroke="#132e65" stroke-width="1.5"></path><path d="M1268.94 412L1261.59 488.82" stroke="#132e65" stroke-width="1.5"></path><path d="M1261.59 488.82L1261.59 488.82" stroke="#132e65" stroke-width="1.5"></path><path d="M1261.59 488.82L1453.89 542.67" stroke="#132e65" stroke-width="1.5"></path><path d="M1245.3 700.85L1245.3 700.85" stroke="#132e65" stroke-width="1.5"></path><path d="M1432.03 -51.72L1432.03 -51.72" stroke="#132e65" stroke-width="1.5"></path><path d="M1432.03 -51.72L1391.4 99.75" stroke="#132e65" stroke-width="1.5"></path><path d="M1432.03 -51.72L1537.72 76.88" stroke="#132e65" stroke-width="1.5"></path><path d="M1432.03 -51.72L1145.93 -104.23" stroke="#132e65" stroke-width="1.5"></path><path d="M1432.03 -51.72L1599.14 199.78" stroke="#132e65" stroke-width="1.5"></path><path d="M1391.4 99.75L1391.4 99.75" stroke="#132e65" stroke-width="1.5"></path><path d="M1391.4 99.75L1537.72 76.88" stroke="#132e65" stroke-width="1.5"></path><path d="M1391.4 99.75L1448.41 258.99" stroke="#132e65" stroke-width="1.5"></path><path d="M1391.4 99.75L1249.45 235.13" stroke="#132e65" stroke-width="1.5"></path><path d="M1448.41 258.99L1448.41 258.99" stroke="#132e65" stroke-width="1.5"></path><path d="M1448.41 258.99L1456.25 403.97" stroke="#132e65" stroke-width="1.5"></path><path d="M1448.41 258.99L1599.14 199.78" stroke="#132e65" stroke-width="1.5"></path><path d="M1448.41 258.99L1607.41 372.4" stroke="#132e65" stroke-width="1.5"></path><path d="M1448.41 258.99L1249.45 235.13" stroke="#132e65" stroke-width="1.5"></path><path d="M1456.25 403.97L1456.25 403.97" stroke="#132e65" stroke-width="1.5"></path><path d="M1456.25 403.97L1453.89 542.67" stroke="#132e65" stroke-width="1.5"></path><path d="M1456.25 403.97L1607.41 372.4" stroke="#132e65" stroke-width="1.5"></path><path d="M1456.25 403.97L1268.94 412" stroke="#132e65" stroke-width="1.5"></path><path d="M1456.25 403.97L1261.59 488.82" stroke="#132e65" stroke-width="1.5"></path><path d="M1453.89 542.67L1453.89 542.67" stroke="#132e65" stroke-width="1.5"></path><path d="M1453.89 542.67L1437.53 664.98" stroke="#132e65" stroke-width="1.5"></path><path d="M1453.89 542.67L1573.47 675.29" stroke="#132e65" stroke-width="1.5"></path><path d="M1437.53 664.98L1437.53 664.98" stroke="#132e65" stroke-width="1.5"></path><path d="M1437.53 664.98L1573.47 675.29" stroke="#132e65" stroke-width="1.5"></path><path d="M1437.53 664.98L1245.3 700.85" stroke="#132e65" stroke-width="1.5"></path><path d="M1537.72 76.88L1537.72 76.88" stroke="#132e65" stroke-width="1.5"></path><path d="M1537.72 76.88L1599.14 199.78" stroke="#132e65" stroke-width="1.5"></path><path d="M1599.14 199.78L1599.14 199.78" stroke="#132e65" stroke-width="1.5"></path><path d="M1599.14 199.78L1607.41 372.4" stroke="#132e65" stroke-width="1.5"></path><path d="M1599.14 199.78L1391.4 99.75" stroke="#132e65" stroke-width="1.5"></path><path d="M1599.14 199.78L1456.25 403.97" stroke="#132e65" stroke-width="1.5"></path><path d="M1607.41 372.4L1607.41 372.4" stroke="#132e65" stroke-width="1.5"></path><path d="M1607.41 372.4L1453.89 542.67" stroke="#132e65" stroke-width="1.5"></path><path d="M1607.41 372.4L1537.72 76.88" stroke="#132e65" stroke-width="1.5"></path><path d="M1607.41 372.4L1573.47 675.29" stroke="#132e65" stroke-width="1.5"></path><path d="M1573.47 675.29L1573.47 675.29" stroke="#132e65" stroke-width="1.5"></path><path d="M1573.47 675.29L1456.25 403.97" stroke="#132e65" stroke-width="1.5"></path><path d="M1573.47 675.29L1245.3 700.85" stroke="#132e65" stroke-width="1.5"></path><circle r="5" cx="-101.72" cy="391.84" fill="#132e65"></circle><circle r="5" cx="-52.35" cy="506.57" fill="#132e65"></circle><circle r="5" cx="-83.45" cy="648.05" fill="#132e65"></circle><circle r="5" cx="39.36" cy="397.07" fill="#132e65"></circle><circle r="5" cx="106.58" cy="496.95" fill="#132e65"></circle><circle r="5" cx="230.98" cy="407.76" fill="#132e65"></circle><circle r="5" cx="245.85" cy="505.6" fill="#132e65"></circle><circle r="5" cx="221.02" cy="658.69" fill="#132e65"></circle><circle r="5" cx="358.16" cy="337.56" fill="#132e65"></circle><circle r="5" cx="372.59" cy="554.14" fill="#132e65"></circle><circle r="5" cx="351.42" cy="666.69" fill="#132e65"></circle><circle r="5" cx="508.21" cy="346.64" fill="#132e65"></circle><circle r="5" cx="549.69" cy="507.9" fill="#132e65"></circle><circle r="5" cx="524.81" cy="700.09" fill="#132e65"></circle><circle r="5" cx="687.57" cy="221.55" fill="#132e65"></circle><circle r="5" cx="659.52" cy="355.97" fill="#132e65"></circle><circle r="5" cx="651.89" cy="558.76" fill="#132e65"></circle><circle r="5" cx="696.2" cy="711.98" fill="#132e65"></circle><circle r="5" cx="856.78" cy="208.61" fill="#132e65"></circle><circle r="5" cx="823.63" cy="389.73" fill="#132e65"></circle><circle r="5" cx="797.18" cy="682.1" fill="#132e65"></circle><circle r="5" cx="977.29" cy="-61.37" fill="#132e65"></circle><circle r="5" cx="1002.58" cy="87.15" fill="#132e65"></circle><circle r="5" cx="965.65" cy="221.77" fill="#132e65"></circle><circle r="5" cx="1006.5" cy="368.81" fill="#132e65"></circle><circle r="5" cx="961.49" cy="496.5" fill="#132e65"></circle><circle r="5" cx="977.74" cy="683" fill="#132e65"></circle><circle r="5" cx="1145.93" cy="-104.23" fill="#132e65"></circle><circle r="5" cx="1122.17" cy="101.48" fill="#132e65"></circle><circle r="5" cx="1158" cy="236.61" fill="#132e65"></circle><circle r="5" cx="1147.95" cy="521.09" fill="#132e65"></circle><circle r="5" cx="1145.73" cy="680.08" fill="#132e65"></circle><circle r="5" cx="1240.39" cy="-95.64" fill="#132e65"></circle><circle r="5" cx="1302.75" cy="56.6" fill="#132e65"></circle><circle r="5" cx="1249.45" cy="235.13" fill="#132e65"></circle><circle r="5" cx="1268.94" cy="412" fill="#132e65"></circle><circle r="5" cx="1261.59" cy="488.82" fill="#132e65"></circle><circle r="5" cx="1245.3" cy="700.85" fill="#132e65"></circle><circle r="5" cx="1432.03" cy="-51.72" fill="#132e65"></circle><circle r="5" cx="1391.4" cy="99.75" fill="#132e65"></circle><circle r="5" cx="1448.41" cy="258.99" fill="#132e65"></circle><circle r="5" cx="1456.25" cy="403.97" fill="#132e65"></circle><circle r="5" cx="1453.89" cy="542.67" fill="#132e65"></circle><circle r="5" cx="1437.53" cy="664.98" fill="#132e65"></circle><circle r="5" cx="1537.72" cy="76.88" fill="#132e65"></circle><circle r="5" cx="1599.14" cy="199.78" fill="#132e65"></circle><circle r="5" cx="1607.41" cy="372.4" fill="#132e65"></circle><circle r="5" cx="1573.47" cy="675.29" fill="#132e65"></circle><path d="M389.42 710.61L389.42 710.61" stroke="hsl(228.5, 77.2%, 51.5%)" stroke-width="1.5"></path><path d="M389.42 710.61L537 683.88" stroke="hsl(228.5, 77.2%, 51.5%)" stroke-width="1.5"></path><path d="M389.42 710.61L251.3 551.58" stroke="hsl(228.5, 77.2%, 51.5%)" stroke-width="1.5"></path><path d="M389.42 710.61L667.89 677.66" stroke="hsl(228.5, 77.2%, 51.5%)" stroke-width="1.5"></path><path d="M681.46 545.05L681.46 545.05" stroke="hsl(228.5, 77.2%, 51.5%)" stroke-width="1.5"></path><path d="M681.46 545.05L799.35 546.73" stroke="hsl(228.5, 77.2%, 51.5%)" stroke-width="1.5"></path><path d="M681.46 545.05L667.89 677.66" stroke="hsl(228.5, 77.2%, 51.5%)" stroke-width="1.5"></path><path d="M681.46 545.05L537 683.88" stroke="hsl(228.5, 77.2%, 51.5%)" stroke-width="1.5"></path><path d="M681.46 545.05L822.67 706.51" stroke="hsl(228.5, 77.2%, 51.5%)" stroke-width="1.5"></path><path d="M681.46 545.05L806.59 347.9" stroke="hsl(228.5, 77.2%, 51.5%)" stroke-width="1.5"></path><path d="M681.46 545.05L960.9 549.49" stroke="hsl(228.5, 77.2%, 51.5%)" stroke-width="1.5"></path><path d="M806.59 347.9L806.59 347.9" stroke="hsl(228.5, 77.2%, 51.5%)" stroke-width="1.5"></path><path d="M806.59 347.9L959.72 256.23" stroke="hsl(228.5, 77.2%, 51.5%)" stroke-width="1.5"></path><path d="M806.59 347.9L989.87 383.01" stroke="hsl(228.5, 77.2%, 51.5%)" stroke-width="1.5"></path><path d="M806.59 347.9L799.35 546.73" stroke="hsl(228.5, 77.2%, 51.5%)" stroke-width="1.5"></path><path d="M1121.65 216.14L1121.65 216.14" stroke="hsl(228.5, 77.2%, 51.5%)" stroke-width="1.5"></path><path d="M1121.65 216.14L1269.24 209.8" stroke="hsl(228.5, 77.2%, 51.5%)" stroke-width="1.5"></path><path d="M1121.65 216.14L959.72 256.23" stroke="hsl(228.5, 77.2%, 51.5%)" stroke-width="1.5"></path><path d="M1278.52 40.77L1278.52 40.77" stroke="hsl(228.5, 77.2%, 51.5%)" stroke-width="1.5"></path><path d="M1278.52 40.77L1389.3 42.45" stroke="hsl(228.5, 77.2%, 51.5%)" stroke-width="1.5"></path><path d="M1278.52 40.77L1294.03 -70.5" stroke="hsl(228.5, 77.2%, 51.5%)" stroke-width="1.5"></path><path d="M1278.52 40.77L1269.24 209.8" stroke="hsl(228.5, 77.2%, 51.5%)" stroke-width="1.5"></path><path d="M1569.98 675.42L1569.98 675.42" stroke="hsl(228.5, 77.2%, 51.5%)" stroke-width="1.5"></path><path d="M1569.98 675.42L1607.72 516.07" stroke="hsl(228.5, 77.2%, 51.5%)" stroke-width="1.5"></path><path d="M1569.98 675.42L1405.36 654.89" stroke="hsl(228.5, 77.2%, 51.5%)" stroke-width="1.5"></path><path d="M1569.98 675.42L1255.36 709.92" stroke="hsl(228.5, 77.2%, 51.5%)" stroke-width="1.5"></path><path d="M1569.98 675.42L1408.69 401.86" stroke="hsl(228.5, 77.2%, 51.5%)" stroke-width="1.5"></path><path d="M1569.98 675.42L1393.79 232.72" stroke="hsl(228.5, 77.2%, 51.5%)" stroke-width="1.5"></path><path d="M1569.98 675.42L1090.22 672.01" stroke="hsl(228.5, 77.2%, 51.5%)" stroke-width="1.5"></path><path d="M-82.82 539.85L-82.82 539.85" stroke="hsl(228.5, 77.2%, 51.5%)" stroke-width="1.5"></path><path d="M-82.82 539.85L91.02 693.46" stroke="hsl(228.5, 77.2%, 51.5%)" stroke-width="1.5"></path><path d="M-82.82 539.85L251.3 551.58" stroke="hsl(228.5, 77.2%, 51.5%)" stroke-width="1.5"></path><path d="M-82.82 539.85L389.42 710.61" stroke="hsl(228.5, 77.2%, 51.5%)" stroke-width="1.5"></path><path d="M91.02 693.46L91.02 693.46" stroke="hsl(228.5, 77.2%, 51.5%)" stroke-width="1.5"></path><path d="M91.02 693.46L251.3 551.58" stroke="hsl(228.5, 77.2%, 51.5%)" stroke-width="1.5"></path><path d="M91.02 693.46L389.42 710.61" stroke="hsl(228.5, 77.2%, 51.5%)" stroke-width="1.5"></path><path d="M91.02 693.46L537 683.88" stroke="hsl(228.5, 77.2%, 51.5%)" stroke-width="1.5"></path><path d="M251.3 551.58L251.3 551.58" stroke="hsl(228.5, 77.2%, 51.5%)" stroke-width="1.5"></path><path d="M251.3 551.58L537 683.88" stroke="hsl(228.5, 77.2%, 51.5%)" stroke-width="1.5"></path><path d="M251.3 551.58L681.46 545.05" stroke="hsl(228.5, 77.2%, 51.5%)" stroke-width="1.5"></path><path d="M537 683.88L537 683.88" stroke="hsl(228.5, 77.2%, 51.5%)" stroke-width="1.5"></path><path d="M537 683.88L667.89 677.66" stroke="hsl(228.5, 77.2%, 51.5%)" stroke-width="1.5"></path><path d="M537 683.88L822.67 706.51" stroke="hsl(228.5, 77.2%, 51.5%)" stroke-width="1.5"></path><path d="M537 683.88L799.35 546.73" stroke="hsl(228.5, 77.2%, 51.5%)" stroke-width="1.5"></path><path d="M667.89 677.66L667.89 677.66" stroke="hsl(228.5, 77.2%, 51.5%)" stroke-width="1.5"></path><path d="M667.89 677.66L822.67 706.51" stroke="hsl(228.5, 77.2%, 51.5%)" stroke-width="1.5"></path><path d="M667.89 677.66L799.35 546.73" stroke="hsl(228.5, 77.2%, 51.5%)" stroke-width="1.5"></path><path d="M667.89 677.66L960.9 549.49" stroke="hsl(228.5, 77.2%, 51.5%)" stroke-width="1.5"></path><path d="M799.35 546.73L799.35 546.73" stroke="hsl(228.5, 77.2%, 51.5%)" stroke-width="1.5"></path><path d="M799.35 546.73L822.67 706.51" stroke="hsl(228.5, 77.2%, 51.5%)" stroke-width="1.5"></path><path d="M822.67 706.51L822.67 706.51" stroke="hsl(228.5, 77.2%, 51.5%)" stroke-width="1.5"></path><path d="M822.67 706.51L998.76 639.8" stroke="hsl(228.5, 77.2%, 51.5%)" stroke-width="1.5"></path><path d="M822.67 706.51L960.9 549.49" stroke="hsl(228.5, 77.2%, 51.5%)" stroke-width="1.5"></path><path d="M822.67 706.51L1090.22 672.01" stroke="hsl(228.5, 77.2%, 51.5%)" stroke-width="1.5"></path><path d="M959.72 256.23L959.72 256.23" stroke="hsl(228.5, 77.2%, 51.5%)" stroke-width="1.5"></path><path d="M959.72 256.23L989.87 383.01" stroke="hsl(228.5, 77.2%, 51.5%)" stroke-width="1.5"></path><path d="M989.87 383.01L989.87 383.01" stroke="hsl(228.5, 77.2%, 51.5%)" stroke-width="1.5"></path><path d="M960.9 549.49L960.9 549.49" stroke="hsl(228.5, 77.2%, 51.5%)" stroke-width="1.5"></path><path d="M960.9 549.49L998.76 639.8" stroke="hsl(228.5, 77.2%, 51.5%)" stroke-width="1.5"></path><path d="M960.9 549.49L1097.29 537.75" stroke="hsl(228.5, 77.2%, 51.5%)" stroke-width="1.5"></path><path d="M960.9 549.49L799.35 546.73" stroke="hsl(228.5, 77.2%, 51.5%)" stroke-width="1.5"></path><path d="M960.9 549.49L989.87 383.01" stroke="hsl(228.5, 77.2%, 51.5%)" stroke-width="1.5"></path><path d="M998.76 639.8L998.76 639.8" stroke="hsl(228.5, 77.2%, 51.5%)" stroke-width="1.5"></path><path d="M998.76 639.8L1090.22 672.01" stroke="hsl(228.5, 77.2%, 51.5%)" stroke-width="1.5"></path><path d="M998.76 639.8L1097.29 537.75" stroke="hsl(228.5, 77.2%, 51.5%)" stroke-width="1.5"></path><path d="M998.76 639.8L799.35 546.73" stroke="hsl(228.5, 77.2%, 51.5%)" stroke-width="1.5"></path><path d="M998.76 639.8L989.87 383.01" stroke="hsl(228.5, 77.2%, 51.5%)" stroke-width="1.5"></path><path d="M1129.5 407.35L1129.5 407.35" stroke="hsl(228.5, 77.2%, 51.5%)" stroke-width="1.5"></path><path d="M1129.5 407.35L1097.29 537.75" stroke="hsl(228.5, 77.2%, 51.5%)" stroke-width="1.5"></path><path d="M1129.5 407.35L989.87 383.01" stroke="hsl(228.5, 77.2%, 51.5%)" stroke-width="1.5"></path><path d="M1129.5 407.35L1121.65 216.14" stroke="hsl(228.5, 77.2%, 51.5%)" stroke-width="1.5"></path><path d="M1129.5 407.35L960.9 549.49" stroke="hsl(228.5, 77.2%, 51.5%)" stroke-width="1.5"></path><path d="M1129.5 407.35L959.72 256.23" stroke="hsl(228.5, 77.2%, 51.5%)" stroke-width="1.5"></path><path d="M1097.29 537.75L1097.29 537.75" stroke="hsl(228.5, 77.2%, 51.5%)" stroke-width="1.5"></path><path d="M1097.29 537.75L1090.22 672.01" stroke="hsl(228.5, 77.2%, 51.5%)" stroke-width="1.5"></path><path d="M1090.22 672.01L1090.22 672.01" stroke="hsl(228.5, 77.2%, 51.5%)" stroke-width="1.5"></path><path d="M1090.22 672.01L1255.36 709.92" stroke="hsl(228.5, 77.2%, 51.5%)" stroke-width="1.5"></path><path d="M1090.22 672.01L960.9 549.49" stroke="hsl(228.5, 77.2%, 51.5%)" stroke-width="1.5"></path><path d="M1090.22 672.01L1129.5 407.35" stroke="hsl(228.5, 77.2%, 51.5%)" stroke-width="1.5"></path><path d="M1294.03 -70.5L1294.03 -70.5" stroke="hsl(228.5, 77.2%, 51.5%)" stroke-width="1.5"></path><path d="M1294.03 -70.5L1441.45 -63.48" stroke="hsl(228.5, 77.2%, 51.5%)" stroke-width="1.5"></path><path d="M1269.24 209.8L1269.24 209.8" stroke="hsl(228.5, 77.2%, 51.5%)" stroke-width="1.5"></path><path d="M1269.24 209.8L1393.79 232.72" stroke="hsl(228.5, 77.2%, 51.5%)" stroke-width="1.5"></path><path d="M1269.24 209.8L1389.3 42.45" stroke="hsl(228.5, 77.2%, 51.5%)" stroke-width="1.5"></path><path d="M1269.24 209.8L1408.69 401.86" stroke="hsl(228.5, 77.2%, 51.5%)" stroke-width="1.5"></path><path d="M1255.36 709.92L1255.36 709.92" stroke="hsl(228.5, 77.2%, 51.5%)" stroke-width="1.5"></path><path d="M1255.36 709.92L1405.36 654.89" stroke="hsl(228.5, 77.2%, 51.5%)" stroke-width="1.5"></path><path d="M1441.45 -63.48L1441.45 -63.48" stroke="hsl(228.5, 77.2%, 51.5%)" stroke-width="1.5"></path><path d="M1441.45 -63.48L1389.3 42.45" stroke="hsl(228.5, 77.2%, 51.5%)" stroke-width="1.5"></path><path d="M1441.45 -63.48L1588.28 -47.56" stroke="hsl(228.5, 77.2%, 51.5%)" stroke-width="1.5"></path><path d="M1441.45 -63.48L1278.52 40.77" stroke="hsl(228.5, 77.2%, 51.5%)" stroke-width="1.5"></path><path d="M1441.45 -63.48L1593.89 77.69" stroke="hsl(228.5, 77.2%, 51.5%)" stroke-width="1.5"></path><path d="M1389.3 42.45L1389.3 42.45" stroke="hsl(228.5, 77.2%, 51.5%)" stroke-width="1.5"></path><path d="M1389.3 42.45L1294.03 -70.5" stroke="hsl(228.5, 77.2%, 51.5%)" stroke-width="1.5"></path><path d="M1389.3 42.45L1393.79 232.72" stroke="hsl(228.5, 77.2%, 51.5%)" stroke-width="1.5"></path><path d="M1393.79 232.72L1393.79 232.72" stroke="hsl(228.5, 77.2%, 51.5%)" stroke-width="1.5"></path><path d="M1393.79 232.72L1408.69 401.86" stroke="hsl(228.5, 77.2%, 51.5%)" stroke-width="1.5"></path><path d="M1393.79 232.72L1573.49 192.52" stroke="hsl(228.5, 77.2%, 51.5%)" stroke-width="1.5"></path><path d="M1408.69 401.86L1408.69 401.86" stroke="hsl(228.5, 77.2%, 51.5%)" stroke-width="1.5"></path><path d="M1408.69 401.86L1607.72 516.07" stroke="hsl(228.5, 77.2%, 51.5%)" stroke-width="1.5"></path><path d="M1408.69 401.86L1405.36 654.89" stroke="hsl(228.5, 77.2%, 51.5%)" stroke-width="1.5"></path><path d="M1405.36 654.89L1405.36 654.89" stroke="hsl(228.5, 77.2%, 51.5%)" stroke-width="1.5"></path><path d="M1405.36 654.89L1607.72 516.07" stroke="hsl(228.5, 77.2%, 51.5%)" stroke-width="1.5"></path><path d="M1405.36 654.89L1090.22 672.01" stroke="hsl(228.5, 77.2%, 51.5%)" stroke-width="1.5"></path><path d="M1588.28 -47.56L1588.28 -47.56" stroke="hsl(228.5, 77.2%, 51.5%)" stroke-width="1.5"></path><path d="M1588.28 -47.56L1593.89 77.69" stroke="hsl(228.5, 77.2%, 51.5%)" stroke-width="1.5"></path><path d="M1588.28 -47.56L1389.3 42.45" stroke="hsl(228.5, 77.2%, 51.5%)" stroke-width="1.5"></path><path d="M1588.28 -47.56L1573.49 192.52" stroke="hsl(228.5, 77.2%, 51.5%)" stroke-width="1.5"></path><path d="M1588.28 -47.56L1294.03 -70.5" stroke="hsl(228.5, 77.2%, 51.5%)" stroke-width="1.5"></path><path d="M1593.89 77.69L1593.89 77.69" stroke="hsl(228.5, 77.2%, 51.5%)" stroke-width="1.5"></path><path d="M1593.89 77.69L1573.49 192.52" stroke="hsl(228.5, 77.2%, 51.5%)" stroke-width="1.5"></path><path d="M1593.89 77.69L1389.3 42.45" stroke="hsl(228.5, 77.2%, 51.5%)" stroke-width="1.5"></path><path d="M1593.89 77.69L1393.79 232.72" stroke="hsl(228.5, 77.2%, 51.5%)" stroke-width="1.5"></path><path d="M1573.49 192.52L1573.49 192.52" stroke="hsl(228.5, 77.2%, 51.5%)" stroke-width="1.5"></path><path d="M1573.49 192.52L1389.3 42.45" stroke="hsl(228.5, 77.2%, 51.5%)" stroke-width="1.5"></path><path d="M1573.49 192.52L1408.69 401.86" stroke="hsl(228.5, 77.2%, 51.5%)" stroke-width="1.5"></path><path d="M1573.49 192.52L1441.45 -63.48" stroke="hsl(228.5, 77.2%, 51.5%)" stroke-width="1.5"></path><path d="M1607.72 516.07L1607.72 516.07" stroke="hsl(228.5, 77.2%, 51.5%)" stroke-width="1.5"></path><circle r="25" cx="389.42" cy="710.61" fill="url(&quot;#SvgjsRadialGradient1051&quot;)"></circle><circle r="25" cx="681.46" cy="545.05" fill="url(&quot;#SvgjsRadialGradient1051&quot;)"></circle><circle r="25" cx="806.59" cy="347.9" fill="url(&quot;#SvgjsRadialGradient1051&quot;)"></circle><circle r="25" cx="1121.65" cy="216.14" fill="url(&quot;#SvgjsRadialGradient1051&quot;)"></circle><circle r="25" cx="1278.52" cy="40.77" fill="url(&quot;#SvgjsRadialGradient1051&quot;)"></circle><circle r="25" cx="1569.98" cy="675.42" fill="url(&quot;#SvgjsRadialGradient1051&quot;)"></circle><circle r="5" cx="-82.82" cy="539.85" fill="#8b9ad9"></circle><circle r="5" cx="91.02" cy="693.46" fill="#8b9ad9"></circle><circle r="5" cx="251.3" cy="551.58" fill="#8b9ad9"></circle><circle r="5" cx="537" cy="683.88" fill="#8b9ad9"></circle><circle r="5" cx="667.89" cy="677.66" fill="#8b9ad9"></circle><circle r="5" cx="799.35" cy="546.73" fill="#8b9ad9"></circle><circle r="5" cx="822.67" cy="706.51" fill="#8b9ad9"></circle><circle r="5" cx="959.72" cy="256.23" fill="#8b9ad9"></circle><circle r="5" cx="989.87" cy="383.01" fill="#8b9ad9"></circle><circle r="5" cx="960.9" cy="549.49" fill="#8b9ad9"></circle><circle r="5" cx="998.76" cy="639.8" fill="#8b9ad9"></circle><circle r="5" cx="1129.5" cy="407.35" fill="#8b9ad9"></circle><circle r="5" cx="1097.29" cy="537.75" fill="#8b9ad9"></circle><circle r="5" cx="1090.22" cy="672.01" fill="#8b9ad9"></circle><circle r="5" cx="1294.03" cy="-70.5" fill="#8b9ad9"></circle><circle r="5" cx="1269.24" cy="209.8" fill="#8b9ad9"></circle><circle r="5" cx="1255.36" cy="709.92" fill="#8b9ad9"></circle><circle r="5" cx="1441.45" cy="-63.48" fill="#8b9ad9"></circle><circle r="5" cx="1389.3" cy="42.45" fill="#8b9ad9"></circle><circle r="5" cx="1393.79" cy="232.72" fill="#8b9ad9"></circle><circle r="5" cx="1408.69" cy="401.86" fill="#8b9ad9"></circle><circle r="5" cx="1405.36" cy="654.89" fill="#8b9ad9"></circle><circle r="5" cx="1588.28" cy="-47.56" fill="#8b9ad9"></circle><circle r="5" cx="1593.89" cy="77.69" fill="#8b9ad9"></circle><circle r="5" cx="1573.49" cy="192.52" fill="#8b9ad9"></circle><circle r="5" cx="1607.72" cy="516.07" fill="#8b9ad9"></circle></g><defs><mask id="SvgjsMask1050"><rect width="1440" height="560" fill="#ffffff"></rect></mask><radialGradient id="SvgjsRadialGradient1051"><stop stop-color="#ffffff" offset="0.1"></stop><stop stop-color="#1735b3" offset="0.2"></stop><stop stop-color="rgba(23, 53, 179, 0)" offset="1"></stop></radialGradient></defs></svg>