<svg xmlns="http://www.w3.org/2000/svg" version="1.1" xmlns:xlink="http://www.w3.org/1999/xlink" xmlns:svgjs="http://svgjs.dev/svgjs" width="1440" height="560" preserveAspectRatio="none" viewBox="0 0 1440 560"><g mask="url(&quot;#SvgjsMask1030&quot;)" fill="none"><rect width="1440" height="560" x="0" y="0" fill="rgba(221, 221, 218, 1)"></rect><path d="M0 0L0.11 0L0 189.6z" fill="rgba(255, 255, 255, .1)"></path><path d="M0 189.6L0.11 0L170.92000000000002 0L0 261.53999999999996z" fill="rgba(255, 255, 255, .075)"></path><path d="M0 261.53999999999996L170.92000000000002 0L879.8900000000001 0L0 316.42999999999995z" fill="rgba(255, 255, 255, .05)"></path><path d="M0 316.42999999999995L879.8900000000001 0L1182.46 0L0 327.44999999999993z" fill="rgba(255, 255, 255, .025)"></path><path d="M1440 560L1087.53 560L1440 387.48z" fill="rgba(0, 0, 0, .1)"></path><path d="M1440 387.48L1087.53 560L945.46 560L1440 275.31z" fill="rgba(0, 0, 0, .075)"></path><path d="M1440 275.31L945.46 560L606.52 560L1440 161.55z" fill="rgba(0, 0, 0, .05)"></path><path d="M1440 161.55L606.52 560L212.59999999999997 560L1440 69.27000000000001z" fill="rgba(0, 0, 0, .025)"></path></g><defs><mask id="SvgjsMask1030"><rect width="1440" height="560" fill="#ffffff"></rect></mask></defs></svg>